<svg width="24" height="24" viewBox="0 0 24 24" fill="none" xmlns="http://www.w3.org/2000/svg">
<g clip-path="url(#clip0_83_357)">
<path fill-rule="evenodd" clip-rule="evenodd" d="M12 2C6.477 2 2 6.477 2 12C2 17.523 6.477 22 12 22C17.523 22 22 17.523 22 12C22 6.477 17.523 2 12 2ZM4 12C4.00032 10.335 4.52012 8.71163 5.48694 7.35612C6.45376 6.00061 7.81942 4.98053 9.39355 4.43807C10.9677 3.89561 12.6718 3.8578 14.2685 4.32992C15.8651 4.80204 17.2747 5.76056 18.3006 7.07186C19.3266 8.38316 19.9179 9.9819 19.9921 11.6452C20.0662 13.3086 19.6196 14.9536 18.7144 16.351C17.8091 17.7484 16.4905 18.8285 14.9422 19.4409C13.3939 20.0532 11.6932 20.1672 10.077 19.767L10.795 16.393C11.482 16.989 12.335 17.216 13.154 17.201C14.052 17.184 14.954 16.881 15.709 16.406C16.461 15.933 17.133 15.246 17.501 14.399C17.8988 13.4859 18.063 12.4882 17.9788 11.4958C17.8947 10.5034 17.5648 9.54754 17.019 8.71447C16.4731 7.88139 15.7285 7.1973 14.8523 6.72389C13.976 6.25048 12.9957 6.00264 11.9997 6.00273C11.0038 6.00282 10.0235 6.25084 9.14734 6.72441C8.27117 7.19798 7.52667 7.88221 6.98099 8.71538C6.43531 9.54855 6.10562 10.5045 6.02165 11.4969C5.93767 12.4893 6.10207 13.487 6.5 14.4C6.54979 14.5243 6.62404 14.6373 6.71835 14.7324C6.81266 14.8275 6.92509 14.9026 7.049 14.9534C7.1729 15.0042 7.30574 15.0296 7.43964 15.0281C7.57354 15.0266 7.70577 14.9982 7.82848 14.9446C7.9512 14.891 8.06191 14.8133 8.15403 14.7161C8.24616 14.6189 8.31783 14.5043 8.36479 14.3788C8.41175 14.2534 8.43304 14.1199 8.42741 13.9861C8.42178 13.8523 8.38933 13.721 8.332 13.6C8.09497 13.0551 7.98232 12.4642 8.00225 11.8703C8.02218 11.2764 8.17419 10.6944 8.44722 10.1666C8.72025 9.6388 9.10745 9.17846 9.58067 8.81905C10.0539 8.45963 10.6013 8.21017 11.183 8.08879C11.7647 7.96741 12.3661 7.97717 12.9436 8.11734C13.5211 8.25752 14.06 8.5246 14.5213 8.89917C14.9827 9.27374 15.3547 9.74639 15.6105 10.2828C15.8663 10.8191 15.9993 11.4058 16 12C16 13.095 15.59 14.117 14.643 14.713C14.155 15.021 13.604 15.193 13.117 15.201C12.64 15.211 12.275 15.067 12.022 14.802C11.774 14.542 11.501 14.04 11.501 13.1C11.501 12.5 11.73 12 12.004 10.708C12.0337 10.5787 12.0373 10.4448 12.0147 10.3141C11.9921 10.1834 11.9437 10.0584 11.8723 9.94661C11.801 9.83477 11.7081 9.73825 11.5991 9.66267C11.4901 9.58708 11.3671 9.53395 11.2373 9.50635C11.1076 9.47875 10.9736 9.47725 10.8433 9.50193C10.7129 9.5266 10.5888 9.57697 10.4781 9.65009C10.3674 9.72321 10.2724 9.81762 10.1986 9.92782C10.1247 10.038 10.0735 10.1618 10.048 10.292L8.188 19.035C6.92087 18.3485 5.86278 17.3323 5.12559 16.094C4.3884 14.8557 3.9995 13.4412 4 12Z" fill="#F3EBEB"/>
</g>
<defs>
<clipPath id="clip0_83_357">
<rect width="24" height="24" fill="white"/>
</clipPath>
</defs>
</svg>
