<svg width="24" height="25" viewBox="0 0 24 25" fill="none" xmlns="http://www.w3.org/2000/svg">
<path d="M15.5 14.25H14.71L14.43 13.98C15.4439 12.804 16.0011 11.3027 16 9.75C16 8.46442 15.6188 7.20772 14.9046 6.1388C14.1903 5.06988 13.1752 4.23676 11.9874 3.74479C10.7997 3.25282 9.49279 3.12409 8.23192 3.3749C6.97104 3.6257 5.81285 4.24477 4.90381 5.15381C3.99477 6.06285 3.3757 7.22104 3.1249 8.48192C2.87409 9.74279 3.00282 11.0497 3.49479 12.2374C3.98676 13.4252 4.81988 14.4403 5.8888 15.1546C6.95772 15.8688 8.21442 16.25 9.5 16.25C11.11 16.25 12.59 15.66 13.73 14.68L14 14.96V15.75L19 20.74L20.49 19.25L15.5 14.25ZM9.5 14.25C7.01 14.25 5 12.24 5 9.75C5 7.26 7.01 5.25 9.5 5.25C11.99 5.25 14 7.26 14 9.75C14 12.24 11.99 14.25 9.5 14.25Z" fill="#F3EBEB"/>
</svg>
