<svg width="24" height="24" viewBox="0 0 24 24" fill="none" xmlns="http://www.w3.org/2000/svg">
<g clip-path="url(#clip0_83_365)">
<path fill-rule="evenodd" clip-rule="evenodd" d="M17.817 6.9889C17.464 6.4809 16.52 5.7669 14.991 6.0749C14.099 6.2539 13.566 6.6949 13.227 7.2769C12.866 7.8969 12.691 8.7399 12.691 9.7209C12.691 9.98612 12.5857 10.2405 12.3982 10.428C12.2106 10.6155 11.9563 10.7209 11.691 10.7209C9.32504 10.7209 7.07304 10.0179 5.17804 8.1169C5.03497 8.8882 4.97862 9.67308 5.01004 10.4569C5.06304 11.5429 5.32204 12.6319 5.93704 13.5649C6.54204 14.4819 7.53704 15.3219 9.20104 15.8499C9.3641 15.9016 9.51115 15.9943 9.62816 16.1191C9.74516 16.2439 9.8282 16.3966 9.86934 16.5626C9.91047 16.7287 9.90832 16.9025 9.8631 17.0675C9.81788 17.2324 9.73109 17.383 9.61104 17.5049C9.07804 18.0516 8.47396 18.5242 7.81504 18.9099C8.87504 19.0199 9.89704 19.0279 10.845 18.9419C12.765 18.7679 14.294 18.2189 15.25 17.4419C17.263 15.8099 18.34 13.3759 18.14 9.2979C18.106 8.6279 18.753 7.9049 19.065 7.3559C18.594 7.4439 18.122 7.4279 17.817 6.9889ZM4.59404 4.9839C4.7751 4.96286 4.95846 4.99171 5.12431 5.06732C5.29016 5.14293 5.43218 5.26243 5.53504 5.4129C7.01104 7.5719 8.78304 8.4699 10.75 8.6739C10.846 7.8329 11.073 7.0019 11.5 6.2699C12.126 5.1959 13.144 4.4059 14.598 4.1139C16.608 3.7099 18.138 4.4379 19.025 5.3289L20.817 4.9939C21.0046 4.95877 21.1982 4.97801 21.3752 5.04935C21.5521 5.1207 21.7049 5.24117 21.8157 5.39655C21.9264 5.55193 21.9903 5.73574 21.9999 5.92628C22.0096 6.11682 21.9645 6.30614 21.87 6.4719L20.15 9.4939C20.307 13.8549 19.095 16.8989 16.511 18.9959C15.141 20.1079 13.179 20.7389 11.026 20.9339C8.85604 21.1299 6.40304 20.8929 3.96504 20.1809C3.75674 20.1201 3.57384 19.9933 3.44397 19.8194C3.31409 19.6456 3.24428 19.4343 3.24507 19.2173C3.24587 19.0003 3.31721 18.7894 3.44835 18.6166C3.57949 18.4437 3.7633 18.3181 3.97204 18.2589C5.19804 17.9099 6.13204 17.6089 6.97504 17.0819C5.77604 16.4459 4.89304 15.6139 4.26804 14.6659C3.40004 13.3479 3.07804 11.8779 3.01404 10.5529C2.95004 9.2279 3.14104 7.9999 3.34304 7.1149C3.45804 6.6099 3.59204 6.1039 3.77704 5.6199C3.8423 5.44929 3.95304 5.29982 4.09725 5.1877C4.24145 5.07558 4.41261 5.0051 4.59404 4.9839Z" fill="#F3EBEB"/>
</g>
<defs>
<clipPath id="clip0_83_365">
<rect width="24" height="24" fill="white"/>
</clipPath>
</defs>
</svg>
