<svg width="24" height="24" viewBox="0 0 24 24" fill="none" xmlns="http://www.w3.org/2000/svg">
<path d="M19.0201 4.97498C17.631 3.58658 15.8615 2.64124 13.9352 2.25851C12.0089 1.87577 10.0124 2.07284 8.19814 2.82478C6.38385 3.57672 4.83328 4.84976 3.74249 6.48293C2.65171 8.1161 2.0697 10.036 2.07007 12C2.07007 14.634 3.1161 17.1603 4.97819 19.0233C6.84029 20.8863 9.36601 21.9337 12.0001 21.935C13.3036 21.9355 14.5945 21.6807 15.8001 21.185C17.0018 20.6777 18.0949 19.9445 19.0201 19.025C19.9427 18.1025 20.6746 17.0073 21.1739 15.8019C21.6733 14.5966 21.9303 13.3047 21.9303 12C21.9303 10.6953 21.6733 9.40337 21.1739 8.19801C20.6746 6.99265 19.9427 5.89746 19.0201 4.97498ZM18.3201 18.315C16.8901 19.7511 15.0138 20.6575 13.0001 20.885V14.325H14.8801C15.1453 14.325 15.3996 14.2196 15.5872 14.0321C15.7747 13.8445 15.8801 13.5902 15.8801 13.325C15.8801 13.0598 15.7747 12.8054 15.5872 12.6179C15.3996 12.4303 15.1453 12.325 14.8801 12.325H13.0001V9.58498C13.0001 9.31976 13.1054 9.06541 13.293 8.87787C13.4805 8.69034 13.7349 8.58498 14.0001 8.58498H15.2001C15.4653 8.58498 15.7196 8.47962 15.9072 8.29209C16.0947 8.10455 16.2001 7.8502 16.2001 7.58498C16.2001 7.31976 16.0947 7.06541 15.9072 6.87787C15.7196 6.69034 15.4653 6.58498 15.2001 6.58498H13.5001C12.837 6.58498 12.2011 6.84837 11.7323 7.31721C11.2635 7.78605 11.0001 8.42194 11.0001 9.08498V12.325H9.13007C8.86485 12.325 8.6105 12.4303 8.42296 12.6179C8.23543 12.8054 8.13007 13.0598 8.13007 13.325C8.13007 13.5902 8.23543 13.8445 8.42296 14.0321C8.6105 14.2196 8.86485 14.325 9.13007 14.325H11.0001V20.885C9.14296 20.6731 7.39935 19.8831 6.01552 18.6266C4.63169 17.3702 3.67758 15.7107 3.28797 13.8826C2.89836 12.0545 3.09293 10.1502 3.8442 8.43864C4.59547 6.72711 5.86547 5.29486 7.47482 4.3442C9.08416 3.39354 10.9515 2.97252 12.8131 3.1406C14.6747 3.30868 16.4364 4.05737 17.8494 5.28092C19.2625 6.50447 20.2554 8.14104 20.6879 9.95946C21.1205 11.7779 20.9708 13.6862 20.2601 15.415C19.8074 16.4982 19.1485 17.4831 18.3201 18.315Z" fill="#F3EBEB"/>
</svg>
